<mxfile host="Electron" agent="Mozilla/5.0 (Windows NT 10.0; Win64; x64) AppleWebKit/537.36 (KHTML, like Gecko) draw.io/24.7.5 Chrome/126.0.6478.183 Electron/31.3.0 Safari/537.36" version="24.7.5" pages="2">
  <diagram id="Z8GHMqxU12bfNi5Fk7VF" name="Class Diagram">
    <mxGraphModel dx="1205" dy="1634" grid="1" gridSize="10" guides="1" tooltips="1" connect="1" arrows="1" fold="1" page="1" pageScale="1" pageWidth="1169" pageHeight="827" math="0" shadow="0">
      <root>
        <mxCell id="0" />
        <mxCell id="1" parent="0" />
        <mxCell id="7QBVO-Cr7bagE40dnvUB-24" value="" style="rounded=0;whiteSpace=wrap;html=1;fillColor=#d5e8d4;strokeColor=#82b366;" parent="1" vertex="1">
          <mxGeometry x="700" y="50" width="340" height="410" as="geometry" />
        </mxCell>
        <mxCell id="7QBVO-Cr7bagE40dnvUB-25" value="simple_modbus_rtu.h" style="text;html=1;align=left;verticalAlign=middle;whiteSpace=wrap;rounded=0;fillColor=#f5f5f5;fontColor=#333333;strokeColor=#666666;fontStyle=1" parent="1" vertex="1">
          <mxGeometry x="900" y="50" width="140" height="30" as="geometry" />
        </mxCell>
        <mxCell id="7QBVO-Cr7bagE40dnvUB-22" value="" style="rounded=0;whiteSpace=wrap;html=1;fillColor=#dae8fc;strokeColor=#6c8ebf;" parent="1" vertex="1">
          <mxGeometry x="20" y="50" width="650" height="410" as="geometry" />
        </mxCell>
        <mxCell id="7QBVO-Cr7bagE40dnvUB-1" value="&lt;p style=&quot;margin:0px;margin-top:4px;text-align:center;&quot;&gt;&lt;i&gt;&amp;lt;&amp;lt;Interface&amp;gt;&amp;gt;&lt;/i&gt;&lt;br&gt;&lt;b&gt;smb_transport_if_t&lt;/b&gt;&lt;/p&gt;&lt;hr size=&quot;1&quot; style=&quot;border-style:solid;&quot;&gt;&lt;p style=&quot;margin:0px;margin-left:4px;&quot;&gt;&lt;/p&gt;&lt;p style=&quot;margin:0px;margin-left:4px;&quot;&gt;+ read_frame(uint8_t*, uint8_t): int&lt;br&gt;+ write_frame(uint8_t*, uint8_t): int&lt;/p&gt;" style="verticalAlign=top;align=left;overflow=fill;html=1;whiteSpace=wrap;" parent="1" vertex="1">
          <mxGeometry x="90" y="100" width="210" height="100" as="geometry" />
        </mxCell>
        <mxCell id="7QBVO-Cr7bagE40dnvUB-2" value="&lt;p style=&quot;margin:0px;margin-top:4px;text-align:center;&quot;&gt;&lt;i&gt;&amp;lt;&amp;lt;Interface&amp;gt;&amp;gt;&lt;/i&gt;&lt;br&gt;&lt;b&gt;smb_rtu_if_t&lt;/b&gt;&lt;/p&gt;&lt;hr size=&quot;1&quot; style=&quot;border-style:solid;&quot;&gt;&lt;p style=&quot;margin:0px;margin-left:4px;&quot;&gt;&lt;/p&gt;&lt;p style=&quot;margin:0px;margin-left:4px;&quot;&gt;+ reset_counter(void): void&lt;/p&gt;&lt;p style=&quot;margin:0px;margin-left:4px;&quot;&gt;+ start_counter(uint32_t):int&lt;/p&gt;&lt;p style=&quot;margin:0px;margin-left:4px;&quot;&gt;+ get_counter(void): uint32_t&lt;/p&gt;&lt;p style=&quot;margin:0px;margin-left:4px;&quot;&gt;+ write(uint8_t*, uint8_t):int&lt;/p&gt;&lt;p style=&quot;margin:0px;margin-left:4px;&quot;&gt;+ frame_received(void):void&lt;/p&gt;" style="verticalAlign=top;align=left;overflow=fill;html=1;whiteSpace=wrap;" parent="1" vertex="1">
          <mxGeometry x="790" y="90" width="210" height="130" as="geometry" />
        </mxCell>
        <mxCell id="7QBVO-Cr7bagE40dnvUB-3" value="&lt;p style=&quot;margin:0px;margin-top:4px;text-align:center;&quot;&gt;&lt;i&gt;&amp;lt;&amp;lt;Interface&amp;gt;&amp;gt;&lt;/i&gt;&lt;br&gt;&lt;b&gt;smb_server_if_t&lt;/b&gt;&lt;/p&gt;&lt;hr size=&quot;1&quot; style=&quot;border-style:solid;&quot;&gt;&lt;p style=&quot;margin:0px;margin-left:4px;&quot;&gt;&lt;/p&gt;&lt;p style=&quot;margin:0px;margin-left:4px;&quot;&gt;+ read_input_regs(uint8_t*, uint): int&lt;/p&gt;&lt;p style=&quot;margin:0px;margin-left:4px;&quot;&gt;.&lt;/p&gt;&lt;p style=&quot;margin:0px;margin-left:4px;&quot;&gt;.&lt;/p&gt;&lt;p style=&quot;margin:0px;margin-left:4px;&quot;&gt;.&lt;/p&gt;&lt;p style=&quot;margin:0px;margin-left:4px;&quot;&gt;... other modbus function codes&lt;/p&gt;" style="verticalAlign=top;align=left;overflow=fill;html=1;whiteSpace=wrap;" parent="1" vertex="1">
          <mxGeometry x="450" y="280" width="210" height="140" as="geometry" />
        </mxCell>
        <mxCell id="7QBVO-Cr7bagE40dnvUB-4" value="User application" style="shape=folder;fontStyle=1;spacingTop=10;tabWidth=40;tabHeight=14;tabPosition=left;html=1;whiteSpace=wrap;" parent="1" vertex="1">
          <mxGeometry x="490" y="-130" width="130" height="90" as="geometry" />
        </mxCell>
        <mxCell id="7QBVO-Cr7bagE40dnvUB-5" value="" style="endArrow=block;dashed=1;endFill=0;endSize=12;html=1;rounded=0;" parent="1" source="7QBVO-Cr7bagE40dnvUB-4" target="7QBVO-Cr7bagE40dnvUB-1" edge="1">
          <mxGeometry width="160" relative="1" as="geometry">
            <mxPoint x="310" y="240" as="sourcePoint" />
            <mxPoint x="470" y="240" as="targetPoint" />
          </mxGeometry>
        </mxCell>
        <mxCell id="7QBVO-Cr7bagE40dnvUB-6" value="" style="endArrow=block;dashed=1;endFill=0;endSize=12;html=1;rounded=0;" parent="1" source="7QBVO-Cr7bagE40dnvUB-4" target="7QBVO-Cr7bagE40dnvUB-3" edge="1">
          <mxGeometry width="160" relative="1" as="geometry">
            <mxPoint x="480" y="197" as="sourcePoint" />
            <mxPoint x="273" y="330" as="targetPoint" />
          </mxGeometry>
        </mxCell>
        <mxCell id="7QBVO-Cr7bagE40dnvUB-7" value="" style="endArrow=block;dashed=1;endFill=0;endSize=12;html=1;rounded=0;" parent="1" source="7QBVO-Cr7bagE40dnvUB-4" target="7QBVO-Cr7bagE40dnvUB-2" edge="1">
          <mxGeometry width="160" relative="1" as="geometry">
            <mxPoint x="547" y="200" as="sourcePoint" />
            <mxPoint x="553" y="330" as="targetPoint" />
          </mxGeometry>
        </mxCell>
        <mxCell id="7QBVO-Cr7bagE40dnvUB-8" value="&lt;p style=&quot;margin:0px;margin-top:4px;text-align:center;&quot;&gt;&lt;b&gt;smb_t&lt;/b&gt;&lt;/p&gt;&lt;hr size=&quot;1&quot; style=&quot;border-style:solid;&quot;&gt;&lt;p style=&quot;margin:0px;margin-left:4px;&quot;&gt;&lt;/p&gt;&lt;p style=&quot;margin:0px;margin-left:4px;&quot;&gt;+ smb_server_config(&lt;span style=&quot;background-color: initial;&quot;&gt;smb_transport_if_t*,&lt;/span&gt;&lt;span style=&quot;background-color: initial;&quot;&gt;smb_server_if_t*): int&lt;/span&gt;&lt;/p&gt;&lt;p style=&quot;margin:0px;margin-left:4px;&quot;&gt;+ smb_server_poll(void): int&lt;/p&gt;&lt;p style=&quot;margin:0px;margin-left:4px;&quot;&gt;&lt;br&gt;&lt;/p&gt;&lt;p style=&quot;margin:0px;margin-left:4px;&quot;&gt;+ smb_client_config(smb_transport_if_t*):int&lt;/p&gt;&lt;p style=&quot;margin:0px;margin-left:4px;&quot;&gt;&lt;span style=&quot;background-color: initial;&quot;&gt;+ smb_client_read_dev_id(uint8_t, char[]):int&lt;/span&gt;&lt;/p&gt;" style="verticalAlign=top;align=left;overflow=fill;html=1;whiteSpace=wrap;" parent="1" vertex="1">
          <mxGeometry x="40" y="280" width="360" height="140" as="geometry" />
        </mxCell>
        <mxCell id="7QBVO-Cr7bagE40dnvUB-12" value="1" style="endArrow=open;html=1;endSize=12;startArrow=diamondThin;startSize=14;startFill=1;edgeStyle=orthogonalEdgeStyle;align=left;verticalAlign=bottom;rounded=0;" parent="1" source="7QBVO-Cr7bagE40dnvUB-8" target="7QBVO-Cr7bagE40dnvUB-1" edge="1">
          <mxGeometry x="-0.8824" y="-5" relative="1" as="geometry">
            <mxPoint x="140" y="360" as="sourcePoint" />
            <mxPoint x="300" y="360" as="targetPoint" />
            <Array as="points">
              <mxPoint x="140" y="290" />
              <mxPoint x="140" y="290" />
            </Array>
            <mxPoint as="offset" />
          </mxGeometry>
        </mxCell>
        <mxCell id="7QBVO-Cr7bagE40dnvUB-13" value="1" style="endArrow=open;html=1;endSize=12;startArrow=diamondThin;startSize=14;startFill=1;edgeStyle=orthogonalEdgeStyle;align=left;verticalAlign=bottom;rounded=0;" parent="1" source="7QBVO-Cr7bagE40dnvUB-8" target="7QBVO-Cr7bagE40dnvUB-3" edge="1">
          <mxGeometry x="-1" y="3" relative="1" as="geometry">
            <mxPoint x="270" y="430" as="sourcePoint" />
            <mxPoint x="430" y="430" as="targetPoint" />
            <Array as="points">
              <mxPoint x="350" y="325" />
              <mxPoint x="350" y="325" />
            </Array>
          </mxGeometry>
        </mxCell>
        <mxCell id="7QBVO-Cr7bagE40dnvUB-16" value="Use" style="endArrow=open;endSize=12;dashed=1;html=1;rounded=0;" parent="1" source="7QBVO-Cr7bagE40dnvUB-4" target="7QBVO-Cr7bagE40dnvUB-8" edge="1">
          <mxGeometry width="160" relative="1" as="geometry">
            <mxPoint x="340" y="230" as="sourcePoint" />
            <mxPoint x="500" y="230" as="targetPoint" />
            <Array as="points" />
          </mxGeometry>
        </mxCell>
        <mxCell id="7QBVO-Cr7bagE40dnvUB-18" value="&lt;p style=&quot;margin:0px;margin-top:4px;text-align:center;&quot;&gt;&lt;b&gt;smb_rtu_t&lt;/b&gt;&lt;/p&gt;&lt;hr size=&quot;1&quot; style=&quot;border-style:solid;&quot;&gt;&lt;p style=&quot;margin:0px;margin-left:4px;&quot;&gt;&lt;/p&gt;&lt;p style=&quot;margin:0px;margin-left:4px;&quot;&gt;+ smb_rtu_reset(void):int&lt;/p&gt;&lt;p style=&quot;margin:0px;margin-left:4px;&quot;&gt;+ smb_rtu_config(uint8_t, uint32_t, smb_rtu_if_t*): int&lt;/p&gt;&lt;p style=&quot;margin:0px;margin-left:4px;&quot;&gt;+ smb_rtu_receive(uint8_t):int&lt;/p&gt;&lt;p style=&quot;margin:0px;margin-left:4px;&quot;&gt;+ smb_rtu_read_pdu(uin8_t*, uint8_t):int&lt;/p&gt;&lt;p style=&quot;margin:0px;margin-left:4px;&quot;&gt;+ smb_rtu_write_pdu(uint8_t*, uint8_t):int&lt;/p&gt;" style="verticalAlign=top;align=left;overflow=fill;html=1;whiteSpace=wrap;" parent="1" vertex="1">
          <mxGeometry x="720" y="280" width="300" height="140" as="geometry" />
        </mxCell>
        <mxCell id="7QBVO-Cr7bagE40dnvUB-19" value="Use" style="endArrow=open;endSize=12;dashed=1;html=1;rounded=0;" parent="1" source="7QBVO-Cr7bagE40dnvUB-4" target="7QBVO-Cr7bagE40dnvUB-18" edge="1">
          <mxGeometry width="160" relative="1" as="geometry">
            <mxPoint x="900" y="370" as="sourcePoint" />
            <mxPoint x="1060" y="370" as="targetPoint" />
            <Array as="points" />
          </mxGeometry>
        </mxCell>
        <mxCell id="7QBVO-Cr7bagE40dnvUB-20" value="1" style="endArrow=open;html=1;endSize=12;startArrow=diamondThin;startSize=14;startFill=1;edgeStyle=orthogonalEdgeStyle;align=left;verticalAlign=bottom;rounded=0;" parent="1" source="7QBVO-Cr7bagE40dnvUB-18" target="7QBVO-Cr7bagE40dnvUB-2" edge="1">
          <mxGeometry x="-0.9245" y="-5" relative="1" as="geometry">
            <mxPoint x="910" y="380" as="sourcePoint" />
            <mxPoint x="1070" y="380" as="targetPoint" />
            <mxPoint as="offset" />
          </mxGeometry>
        </mxCell>
        <mxCell id="7QBVO-Cr7bagE40dnvUB-23" value="simple_modbus.h" style="text;html=1;align=left;verticalAlign=middle;whiteSpace=wrap;rounded=0;fillColor=#f5f5f5;fontColor=#333333;strokeColor=#666666;fontStyle=1" parent="1" vertex="1">
          <mxGeometry x="20" y="50" width="110" height="30" as="geometry" />
        </mxCell>
      </root>
    </mxGraphModel>
  </diagram>
  <diagram id="_LPZGOq41rbuTyTw2BvL" name="Sequence Diagram">
    <mxGraphModel dx="1434" dy="836" grid="1" gridSize="10" guides="1" tooltips="1" connect="1" arrows="1" fold="1" page="1" pageScale="1" pageWidth="1169" pageHeight="827" math="0" shadow="0">
      <root>
        <mxCell id="0" />
        <mxCell id="1" parent="0" />
      </root>
    </mxGraphModel>
  </diagram>
</mxfile>
